<?xml version="1.0" encoding="utf-8"?>
<!-- Generator: Adobe Illustrator 24.3.0, SVG Export Plug-In . SVG Version: 6.00 Build 0)  -->
<svg version="1.1" id="Calque_1" xmlns="http://www.w3.org/2000/svg" xmlns:xlink="http://www.w3.org/1999/xlink" x="0px" y="0px"
	 viewBox="0 0 780 211" style="enable-background:new 0 0 780 211;" xml:space="preserve">
<style type="text/css">
	.st0{fill:#FFFFFF;}
	.st1{opacity:0.3986;}
</style>
<g id="UI-KIT">
	<g id="UI_x2F_Logo" transform="translate(-330.000000, -1119.000000)">
		<g id="Fichier-18" transform="translate(330.000000, 1119.000000)">
			<path id="Path" class="st0" d="M175.5,0c-4.9,0-9.6,1.9-13.1,5.3s-5.4,8.1-5.4,12.9V135c0,10.1,8.3,18.2,18.5,18.2
				S194,145.1,194,135V18.2C194,8.2,185.7,0,175.5,0L175.5,0z"/>
			<path id="Path_1_" class="st0" d="M366.7,0L366.7,0c-4.9,0-9.5,1.9-13,5.3c-3.4,3.4-5.4,8.1-5.4,12.9v69.6l-34.5-38.8
				c-3.2-4.8-8.4-7.8-14.1-8.1h-0.8h-0.5c-4.5,0-8.8,1.6-12.2,4.6l0,0c-4.7,4.1-6.9,10.4-5.9,16.6v73.3c0,10.1,8.2,18.3,18.3,18.3
				l0,0c10.1,0,18.3-8.2,18.3-18.3v-27.8l36.1,40.6c3.2,3.6,7.8,5.8,12.6,6.1s9.6-1.4,13.3-4.6l0,0c3.9-3.4,6.1-8.3,6.2-13.4
				c0-0.2,0-0.4,0-0.5V18.3c0-4.9-1.9-9.5-5.4-12.9S371.5,0,366.7,0L366.7,0z"/>
			<path id="Shape" class="st0" d="M455,40.8c-8.8,0-17.5,2-25.4,6c-3.4-3.8-8.3-6-13.4-6l0,0c-10,0-18.2,8.2-18.2,18.2v133.7
				c0,4.8,1.9,9.5,5.3,12.9c3.4,3.4,8,5.3,12.9,5.3l0,0c10.1,0,18.2-8.2,18.2-18.3v-41.5c21.3,8.3,45.6,3,61.5-13.5
				c15.9-16.5,20.5-40.9,11.6-62.1C498.6,54.6,477.9,40.8,455,40.8L455,40.8z M455,118.5c-11.4,0-20.6-9.2-20.6-20.6
				c0-11.4,9.2-20.6,20.6-20.6c11.4,0,20.6,9.2,20.6,20.6C475.6,109.3,466.3,118.5,455,118.5z"/>
			<path id="Path_2_" class="st0" d="M201.1,79.8L201.1,79.8c-3.6,3.2-5.8,7.7-6.1,12.6c-0.3,4.8,1.4,9.6,4.6,13.2l37.6,42.6
				c6.7,7.5,18.2,8.2,25.7,1.5l0,0c3.6-3.2,5.8-7.7,6.1-12.6c0.3-4.8-1.3-9.6-4.5-13.2L239,95.1l23.9-21.5
				c7.5-6.7,8.1-18.3,1.4-25.8l0,0c-6.7-7.5-18.2-8.2-25.7-1.4L201.1,79.8z"/>
			<g id="Group-3" transform="translate(0.000000, 40.806604)">
				<path id="Path_3_" class="st0" d="M36.6,54.2c9.6,5,23.4-2.7,30.8-17.3s5.6-30.4-4-35.4S40,4.2,32.6,18.8S27,49.2,36.6,54.2z"/>
				<path id="Path_4_" class="st0" d="M6.8,49.3c6.1,2.1,13.7-3.7,16.8-13.1s0.7-18.7-5.4-20.9S4.5,19.1,1.4,28.4S0.6,47.2,6.8,49.3
					z"/>
				<path id="Path_5_" class="st0" d="M112.5,73.9c-5-5.5-15.7-3.7-24,3.8s-10.9,18.2-6,23.6s15.7,3.7,24-3.8S117.5,79.3,112.5,73.9
					z"/>
				<path id="Path_6_" class="st0" d="M99.9,63.3c9.8-13,10.8-28.8,2.3-35.5s-23.3-1.5-33.1,11.4S58.3,68,66.8,74.7
					S90.2,76.2,99.9,63.3z"/>
				<path id="Path_7_" class="st0" d="M40.2,83.2c-10.8-5.3-21-25.4-33.8-17.9C-4.6,71.8,2,90,18.7,105.3S71.1,112.4,71,97
					C70.9,83.2,50.4,88.2,40.2,83.2z"/>
			</g>
			<g id="Group" transform="translate(535.000000, 41.801887)" class="st1">
				<polygon id="Path_8_" class="st0" points="0.2,0 10.6,0 10.6,111.4 0.2,111.4 				"/>
				<path id="Shape_1_" class="st0" d="M93.8,34.4v77.1h-10V96.2c-3,5-7.2,9.1-12.4,11.9c-5.4,2.8-11.3,4.2-17.4,4.1
					c-6.9,0.1-13.6-1.6-19.6-5c-5.8-3.3-10.6-8.1-13.8-13.9c-3.4-6.2-5.2-13.3-5-20.4c-0.1-7.1,1.6-14.1,5-20.4
					c3.2-5.8,8-10.6,13.8-13.8c6-3.3,12.8-5,19.6-4.9C60,33.7,65.8,35,71,37.7c5.1,2.6,9.3,6.5,12.4,11.4V34.4H93.8z M69.6,99.2
					c4.4-2.5,7.9-6.2,10.2-10.6c2.6-4.8,3.8-10.2,3.7-15.7c0.1-5.5-1.2-10.9-3.7-15.7c-2.3-4.4-5.9-8.1-10.2-10.6
					c-9.1-5-20.1-5-29.3,0c-4.4,2.5-7.9,6.2-10.3,10.6c-5,9.9-5,21.5,0,31.4c2.3,4.4,5.9,8.1,10.3,10.6
					C49.5,104.2,60.5,104.2,69.6,99.2L69.6,99.2z"/>
				<path id="Shape_2_" class="st0" d="M161.5,38.7c5.8,3.2,10.6,8,13.8,13.8c3.4,6.2,5.1,13.3,5,20.4c0.1,7.1-1.6,14.1-5,20.4
					c-3.2,5.8-8,10.7-13.8,13.9c-6,3.4-12.8,5.1-19.7,5c-6,0.1-12-1.3-17.3-4.1c-5.1-2.7-9.4-6.8-12.4-11.9v15.2h-9.9V0h10.4v49
					c3-4.8,7.3-8.7,12.4-11.4c5.2-2.6,11-4,16.9-3.9C148.7,33.7,155.5,35.4,161.5,38.7L161.5,38.7z M155.8,99.2
					c4.4-2.5,8-6.2,10.3-10.6c2.6-4.8,3.8-10.2,3.7-15.7c0.1-5.5-1.2-10.9-3.7-15.7c-2.4-4.5-5.9-8.1-10.3-10.6
					c-9.2-5-20.2-5-29.4,0c-4.3,2.5-7.9,6.2-10.2,10.6c-5,9.9-5,21.5,0,31.4c2.3,4.4,5.9,8.1,10.2,10.6
					C135.6,104.2,146.6,104.2,155.8,99.2L155.8,99.2z"/>
				<path id="Path_9_" class="st0" d="M195,109.5c-4.9-1.4-9.4-3.7-13.4-6.8l4.6-8.2c3.7,2.8,7.8,4.9,12.1,6.2
					c4.9,1.6,10.1,2.4,15.2,2.4c7,0,12.2-1.1,15.6-3.3c3.2-2,5.2-5.5,5-9.3c0.2-2.5-0.9-5-2.7-6.7c-2.1-1.7-4.4-3-7-3.7
					c-3.7-1-7.5-1.8-11.3-2.4c-5.1-0.9-10.1-2.1-15.1-3.6c-3.7-1.2-7.1-3.3-9.7-6.2c-2.7-2.9-4-7-4-12.2c-0.1-6.3,2.9-12.2,8.1-15.8
					c5.4-4.1,12.8-6.2,22.4-6.2c5,0,10.1,0.7,14.9,2c4.4,1,8.5,2.8,12.4,5.2l-4.6,8.4c-6.7-4.5-14.6-6.8-22.6-6.6
					c-6.7,0-11.7,1.2-15,3.5c-3.2,2-5.1,5.5-5,9.2c-0.1,2.7,0.9,5.2,2.9,7c2.1,1.8,4.5,3.2,7.2,3.9c3.9,1.1,7.8,1.9,11.7,2.6
					c5,0.9,9.9,2.1,14.8,3.5c3.6,1.2,6.8,3.2,9.3,6c2.6,2.9,4,6.7,4,11.7c0.1,6.4-3,12.5-8.4,16c-5.6,4-13.4,5.9-23.3,5.9
					C206.8,112.2,200.8,111.3,195,109.5L195,109.5z"/>
			</g>
		</g>
	</g>
</g>
</svg>
